<?xml version="1.0" standalone="no"?>
<!DOCTYPE svg PUBLIC "-//W3C//DTD SVG 1.1//EN" "http://www.w3.org/Graphics/SVG/1.1/DTD/svg11.dtd" >
<svg xmlns="http://www.w3.org/2000/svg">
<metadata></metadata>
<defs>
<font id="abeezeeregular" horiz-adv-x="1228" >
<font-face units-per-em="2048" ascent="1638" descent="-410" />
<missing-glyph horiz-adv-x="614" />
<glyph horiz-adv-x="0" />
<glyph horiz-adv-x="0" />
<glyph horiz-adv-x="682" />
<glyph horiz-adv-x="0" />
<glyph horiz-adv-x="0" />
<glyph horiz-adv-x="0" />
<glyph horiz-adv-x="0" />
<glyph horiz-adv-x="0" />
<glyph horiz-adv-x="0" />
<glyph horiz-adv-x="0" />
<glyph horiz-adv-x="0" />
<glyph unicode="&#x9;" horiz-adv-x="0" />
<glyph unicode="&#xd;" horiz-adv-x="614" />
<glyph horiz-adv-x="0" />
<glyph horiz-adv-x="0" />
<glyph horiz-adv-x="0" />
<glyph horiz-adv-x="0" />
<glyph horiz-adv-x="0" />
<glyph horiz-adv-x="0" />
<glyph horiz-adv-x="0" />
<glyph horiz-adv-x="0" />
<glyph horiz-adv-x="0" />
<glyph horiz-adv-x="0" />
<glyph unicode=" "  horiz-adv-x="614" />
<glyph unicode="&#x09;" horiz-adv-x="614" />
<glyph unicode="&#xa0;" horiz-adv-x="614" />
<glyph unicode="!" horiz-adv-x="643" d="M184 113q0 63 37 100t101 37q54 0 95.5 -41t41.5 -96q0 -61 -38.5 -99.5t-98.5 -38.5q-56 0 -97 41.5t-41 96.5zM217 983v510h205v-510l-27 -559h-151z" />
<glyph unicode="&#x22;" horiz-adv-x="614" d="M53 1434h178l-16 -457h-145zM383 1434h178l-16 -457h-146z" />
<glyph unicode="#" horiz-adv-x="1536" d="M145 254l25 149h188l88 512h-186l25 150h188l45 254h164l-45 -254h401l45 254h164l-45 -254h189l-25 -150h-190l-89 -512h187l-25 -149h-188l-45 -254h-164l45 254h-401l-45 -254h-164l45 254h-187zM522 403h402l88 512h-402z" />
<glyph unicode="$" d="M135 168l90 151q153 -129 350 -129q135 0 214 56.5t79 152.5q0 58 -22.5 98t-88 82t-190.5 89q-204 78 -285 164t-81 227q0 133 99.5 226t274.5 110l-16 233h180l-18 -233q162 -11 319 -86l-65 -154q-158 90 -330 90q-123 0 -195.5 -48.5t-72.5 -127.5q0 -53 20 -87.5 t82.5 -72t184.5 -82.5q216 -80 302.5 -173.5t86.5 -231.5q0 -160 -103.5 -259t-273.5 -122l18 -236h-180l16 230q-252 16 -395 133z" />
<glyph unicode="%" horiz-adv-x="1843" d="M78 1004q0 213 91 328.5t259 115.5t259 -115.5t91 -328.5q0 -214 -91.5 -332.5t-260.5 -118.5t-258.5 118t-89.5 333zM248 1004q0 -153 46.5 -233.5t133.5 -80.5q90 0 135 72.5t45 241.5q0 151 -47 230t-135 79q-87 0 -132.5 -72t-45.5 -237zM408 -4l895 1520l122 -78 l-895 -1520zM1065 438q0 213 91 329t259 116t259 -116t91 -329q0 -214 -91.5 -332t-260.5 -118t-258.5 117.5t-89.5 332.5zM1235 438q0 -153 46.5 -233t133.5 -80q90 0 135 72t45 241q0 152 -47 231t-135 79q-87 0 -132.5 -72.5t-45.5 -237.5z" />
<glyph unicode="&#x26;" horiz-adv-x="1509" d="M184 365q0 132 67 235t216 186q-80 87 -116 161t-36 167q0 149 99.5 246.5t263.5 97.5q159 0 252.5 -88t93.5 -219q0 -129 -75 -222t-240 -173l338 -322q19 34 33 83.5t21 91.5t23 86t37.5 75t65 50.5t106.5 19.5l45 -146q-59 0 -92 -39t-43 -90t-29.5 -122t-48.5 -115 l242 -222l-115 -122l-217 204q-91 -104 -194 -158.5t-246 -54.5q-122 0 -224.5 47.5t-164.5 137.5t-62 205zM379 391q0 -106 80.5 -177t204.5 -71q173 0 299 158l-404 387q-93 -65 -136.5 -134.5t-43.5 -162.5zM485 1116q0 -134 133 -264q127 66 181.5 131t54.5 150 q0 75 -50 126.5t-130 51.5q-82 0 -135.5 -55.5t-53.5 -139.5z" />
<glyph unicode="'" horiz-adv-x="307" d="M66 1434h178l-17 -455h-145z" />
<glyph unicode="(" horiz-adv-x="614" d="M117 655q0 244 68 462t202 446l109 -62q-185 -415 -185 -846q0 -417 185 -845l-109 -62q-133 236 -201.5 457t-68.5 450z" />
<glyph unicode=")" horiz-adv-x="614" d="M119 -190q184 426 184 845q0 433 -184 846l108 62q134 -229 202.5 -447t68.5 -461q0 -229 -68.5 -449.5t-202.5 -457.5z" />
<glyph unicode="*" horiz-adv-x="921" d="M117 1202l49 156l233 -94l-18 252h164l-19 -248l234 90l47 -154l-238 -59l158 -193l-131 -94l-131 211l-135 -213l-129 96l155 189z" />
<glyph unicode="+" d="M215 623v159h313v334h174v-334h312v-159h-312v-334h-174v334h-313z" />
<glyph unicode="," horiz-adv-x="614" d="M61 -270q83 105 132.5 212t76.5 242l181 -51q-43 -307 -289 -461z" />
<glyph unicode="-" d="M266 618v168h697v-168h-697z" />
<glyph unicode="." horiz-adv-x="614" d="M170 113q0 63 36.5 100t100.5 37q54 0 95.5 -41t41.5 -96q0 -61 -38.5 -99.5t-98.5 -38.5q-55 0 -96 41t-41 97z" />
<glyph unicode="/" horiz-adv-x="921" d="M96 -94l578 1677l151 -51l-577 -1677z" />
<glyph unicode="0" d="M123 719q0 355 128 547t365 192q238 0 364 -193.5t126 -549.5q0 -355 -128 -547.5t-366 -192.5t-363.5 194t-125.5 550zM317 721q0 -280 78 -429t219 -149q70 0 123.5 30t93 95.5t60 177t20.5 267.5q0 280 -78 428.5t-219 148.5q-71 0 -124 -30t-92.5 -95t-60 -176.5 t-20.5 -267.5z" />
<glyph unicode="1" d="M213 1128l424 306h135v-1270h244v-164h-721v164h293v1034l-275 -207z" />
<glyph unicode="2" d="M174 76q0 107 35.5 206t92.5 174.5t126 145.5t137.5 131t125.5 118t92.5 120t35.5 125q0 86 -63.5 142t-163.5 56q-154 0 -289 -125l-102 125q182 164 411 164q179 0 290.5 -100t111.5 -250q0 -80 -32.5 -156.5t-85.5 -140t-117 -125t-130 -122t-122.5 -120.5 t-96.5 -131.5t-49 -144.5h631v-168h-832q-6 38 -6 76z" />
<glyph unicode="3" d="M131 98l84 154q145 -109 317 -109q133 0 213 70.5t80 179.5q0 121 -98 200t-289 79h-114v149h106q171 0 263.5 75.5t92.5 182.5q0 94 -72 154.5t-179 60.5q-167 0 -293 -102l-76 145q180 121 383 121q98 0 179 -29t134 -77.5t82 -112.5t29 -135q0 -118 -59 -200 t-173 -138q130 -50 202.5 -145.5t72.5 -221.5q0 -83 -30.5 -157.5t-88.5 -135t-153 -96t-214 -35.5q-233 0 -399 123z" />
<glyph unicode="4" d="M131 305v148l428 995l160 -68l-387 -907h411v408h185v-408h170v-168h-170v-305h-185v305h-612z" />
<glyph unicode="5" d="M174 82l96 158q134 -97 285 -97q136 0 220.5 78.5t84.5 202.5q0 130 -89 209.5t-247 79.5h-254v721h709v-166h-535v-389h103q234 0 371 -120.5t137 -314.5q0 -207 -139 -338t-363 -131q-225 0 -379 107z" />
<glyph unicode="6" d="M143 582q0 140 29.5 267.5t90.5 235t147 186t206.5 123t262.5 44.5q31 0 77 -4v-168q-46 4 -75 4q-223 0 -368 -136.5t-177 -373.5q65 63 155 105t197 42q173 0 286 -118t113 -310q0 -224 -130 -364t-334 -140q-100 0 -185.5 37t-152 109.5t-104.5 191t-38 269.5z M332 551q3 -188 87 -298t212 -110q121 0 196.5 89t75.5 225q0 133 -72 215t-190 82q-174 0 -309 -158v-45z" />
<glyph unicode="7" d="M190 1266v168h910v-148q-145 -141 -236 -265.5t-151 -276.5t-83.5 -327t-23.5 -417h-207q0 231 30.5 416t95 335.5t149 270t207.5 244.5h-691z" />
<glyph unicode="8" d="M115 375q0 135 73 232.5t228 164.5q-113 63 -169.5 142t-56.5 192q0 154 119.5 253t298.5 99q187 0 307.5 -100.5t120.5 -249.5q0 -118 -59.5 -197t-173.5 -137q311 -133 311 -387q0 -184 -138 -298t-351 -114q-230 0 -370 114.5t-140 285.5zM303 408q0 -116 92.5 -192.5 t231.5 -76.5q131 0 215 68.5t84 175.5q0 96 -85 174t-243 135q-125 -30 -210 -105.5t-85 -178.5zM369 1110q0 -88 71.5 -159.5t194.5 -108.5q97 33 160 97.5t63 150.5q0 93 -72 155t-178 62q-105 0 -172 -55t-67 -142z" />
<glyph unicode="9" d="M133 991q0 129 57.5 235t164 169t241.5 63q193 0 309 -119q79 -82 114.5 -209t35.5 -380q0 -160 -25.5 -289.5t-71 -219t-110 -150t-141.5 -88.5t-166 -28q-222 0 -385 160l120 137q123 -129 275 -129q136 0 225.5 136.5t89.5 408.5q-145 -135 -309 -135q-83 0 -158 28.5 t-135 82t-95.5 138.5t-35.5 189zM311 999q0 -133 81 -213.5t196 -80.5q73 0 146 37t132 96v61q0 190 -74 292.5t-202 102.5q-119 0 -199 -82t-80 -213z" />
<glyph unicode=":" horiz-adv-x="614" d="M170 113q0 63 36.5 100t100.5 37q54 0 95.5 -41t41.5 -96q0 -61 -38.5 -99.5t-98.5 -38.5q-55 0 -96 41t-41 97zM170 952q0 63 36.5 100.5t100.5 37.5q54 0 95.5 -41.5t41.5 -96.5q0 -61 -38.5 -99t-98.5 -38q-55 0 -96 40.5t-41 96.5z" />
<glyph unicode=";" horiz-adv-x="614" d="M31 -270q83 105 132.5 212t76.5 242l180 -51q-43 -307 -289 -461zM176 952q0 63 36.5 100.5t100.5 37.5q54 0 96 -41.5t42 -96.5q0 -61 -39 -99t-99 -38q-55 0 -96 40.5t-41 96.5z" />
<glyph unicode="&#x3c;" d="M231 643v117l656 411l90 -143l-531 -326l531 -323l-92 -146z" />
<glyph unicode="=" d="M211 436v162h807v-162h-807zM211 809v162h807v-162h-807z" />
<glyph unicode="&#x3e;" d="M252 379l530 323l-530 326l90 143l655 -411v-117l-653 -410z" />
<glyph unicode="?" horiz-adv-x="1005" d="M92 1325q87 106 188 160.5t236 54.5q168 0 277.5 -97t109.5 -237q0 -70 -22 -129.5t-58 -101t-78.5 -79.5t-85.5 -74t-79 -75t-58 -92t-22 -116v-115h-160q-21 68 -21 151q0 71 21.5 131t55.5 102t75 79.5t82 71t75 66.5t55.5 76t21.5 91q0 74 -57 127t-148 53 q-157 0 -275 -153zM293 113q0 63 36.5 100t100.5 37q54 0 95.5 -41t41.5 -96q0 -61 -38.5 -99.5t-98.5 -38.5q-55 0 -96 41t-41 97z" />
<glyph unicode="@" horiz-adv-x="2150" d="M147 434q0 163 45 315.5t132 280.5t206.5 224t277.5 150t335 54q189 0 350 -62.5t272 -170.5t173.5 -257.5t62.5 -320.5q0 -194 -61 -347.5t-169 -239t-243 -85.5q-102 0 -166 52.5t-76 142.5q-140 -170 -321 -170q-162 0 -274.5 119t-112.5 319q0 232 137 390.5 t334 158.5q102 0 178 -41t121 -110l18 137h162l-84 -670q-6 -47 -6 -72q0 -125 106 -125q71 0 132.5 67t98.5 190t37 274q0 187 -86.5 337t-242.5 235t-353 85q-148 0 -277.5 -48.5t-223 -131.5t-160.5 -192t-100 -232t-33 -250q0 -232 96 -404t260 -259.5t373 -87.5 q254 0 510 127l59 -156q-112 -60 -264.5 -97.5t-316.5 -37.5q-197 0 -362.5 60t-286.5 173t-189 286.5t-68 389.5zM754 465q0 -149 75 -231t191 -82q74 0 142.5 41t113.5 98l49 405q-41 67 -108 107.5t-148 40.5q-128 0 -221.5 -108t-93.5 -271z" />
<glyph unicode="A" horiz-adv-x="1368" d="M20 51l562 1383h213l553 -1383l-179 -71l-159 409h-664l-160 -405zM408 553h538l-268 688z" />
<glyph unicode="B" horiz-adv-x="1290" d="M184 4v1426q192 20 422 20q260 0 402.5 -98.5t142.5 -270.5q0 -217 -236 -321q283 -102 283 -350q0 -198 -155.5 -312t-444.5 -114q-267 0 -414 20zM379 158q117 -13 233 -13q184 0 285.5 66t101.5 190t-101 193.5t-286 69.5h-233v-506zM379 815h225q160 0 256 67t96 175 q0 114 -93.5 174.5t-258.5 60.5q-120 0 -225 -10v-467z" />
<glyph unicode="C" horiz-adv-x="1216" d="M102 711q0 218 80.5 387.5t231 264.5t346.5 95q190 0 344 -74l-60 -163q-137 67 -286 67q-203 0 -330 -152.5t-127 -416.5q0 -256 128 -415t329 -159q94 0 167.5 22t149.5 66l60 -161q-176 -97 -400 -97q-284 0 -458.5 199.5t-174.5 536.5z" />
<glyph unicode="D" horiz-adv-x="1396" d="M184 4v1426q212 20 400 20q178 0 316.5 -57.5t223 -158.5t127.5 -231t43 -284q0 -122 -26.5 -230t-84.5 -201t-142.5 -160t-207 -105.5t-272.5 -38.5q-185 0 -377 20zM379 164q71 -10 188 -10q266 0 397.5 152t131.5 413q0 90 -19.5 172t-61 153.5t-101 124t-146 83 t-190.5 30.5q-107 0 -199 -10v-1108z" />
<glyph unicode="E" horiz-adv-x="1136" d="M184 0v1434h860v-168h-665v-437h573v-163h-573v-498h665v-168h-860z" />
<glyph unicode="F" horiz-adv-x="1095" d="M184 0v1434h850v-168h-655v-439h547v-159h-547v-668h-195z" />
<glyph unicode="G" horiz-adv-x="1380" d="M102 680q0 229 77 404t226.5 274.5t352.5 99.5q222 0 434 -117l-72 -161q-97 53 -184 80.5t-188 27.5q-199 0 -323 -157t-124 -439q0 -253 115 -400t303 -147q104 0 193 43t151 105v313h-297v154h481v-760h-172v143q-192 -168 -401 -168q-252 0 -412 192.5t-160 512.5z " />
<glyph unicode="H" horiz-adv-x="1464" d="M184 0v1434h195v-613h706v613h195v-1434h-195v653h-706v-653h-195z" />
<glyph unicode="I" horiz-adv-x="563" d="M184 0v1434h195v-1434h-195z" />
<glyph unicode="J" horiz-adv-x="880" d="M0 94l94 150q43 -45 100 -73t115 -28q213 0 213 310v981h195v-961q0 -252 -107 -375t-295 -123q-92 0 -175.5 32t-139.5 87z" />
<glyph unicode="K" horiz-adv-x="1230" d="M184 0v1434h195v-654l610 660l131 -121l-559 -582l649 -622l-135 -140l-696 684v-659h-195z" />
<glyph unicode="L" horiz-adv-x="1046" d="M184 0v1434h195v-1260h657v-174h-852z" />
<glyph unicode="M" horiz-adv-x="1708" d="M184 0v1434h273l397 -908l391 908h279v-1434h-195v1186l-383 -862h-192l-385 862v-1186h-185z" />
<glyph unicode="N" horiz-adv-x="1443" d="M184 0v1434h258l633 -1192v1192h185v-1434h-254l-637 1184v-1184h-185z" />
<glyph unicode="O" horiz-adv-x="1558" d="M102 719q0 211 79.5 377.5t234.5 264t362 97.5q155 0 283.5 -58t214.5 -158.5t133 -235t47 -287.5q0 -154 -47 -289.5t-132.5 -236.5t-214.5 -159.5t-284 -58.5q-125 0 -233 38t-188.5 106t-138.5 160.5t-87 204.5t-29 235zM301 719q0 -112 33 -215.5t92.5 -184 t151 -128.5t200.5 -48q153 0 263 76.5t163 204.5t53 295q0 111 -33 213t-93 182t-152 128t-201 48q-147 0 -256.5 -75.5t-165 -204t-55.5 -291.5z" />
<glyph unicode="P" horiz-adv-x="1189" d="M184 0v1430q188 20 396 20q262 0 410.5 -120.5t148.5 -315.5q0 -226 -164 -352.5t-436 -126.5q-86 0 -160 6v-541h-195zM379 707q79 -11 184 -11q181 0 282 81t101 220q0 134 -97.5 211.5t-273.5 77.5q-120 0 -196 -8v-571z" />
<glyph unicode="Q" horiz-adv-x="1558" d="M102 719q0 158 46 293.5t130 234.5t210 155t280 56q152 0 279 -58t211.5 -158.5t131 -235t46.5 -287.5q0 -268 -152 -481l182 -101l-88 -162l-198 148q-180 -148 -412 -148q-123 0 -229.5 38t-186 106t-136 161t-85.5 204.5t-29 234.5zM301 719q0 -152 53 -281 t160.5 -212t249.5 -83q154 0 270 72l-155 98l82 150l184 -133q92 148 92 389q0 149 -54.5 277.5t-163.5 211t-251 82.5q-144 0 -251 -75t-161.5 -203.5t-54.5 -292.5z" />
<glyph unicode="R" horiz-adv-x="1263" d="M184 0v1430q207 20 420 20q254 0 390 -104t136 -277q0 -285 -346 -377q86 -38 144 -101t119 -194l155 -336l-182 -86l-178 390q-67 144 -168.5 206t-263.5 62h-31v-633h-195zM379 797h225q151 0 241.5 66.5t90.5 187.5q0 104 -88 169.5t-244 65.5q-107 0 -225 -8v-481z " />
<glyph unicode="S" horiz-adv-x="1163" d="M61 121l99 164q167 -140 381 -140q147 0 233 61.5t86 166.5q0 62 -24.5 105.5t-96.5 89t-207 96.5q-224 85 -311.5 178t-87.5 248q0 158 130.5 263t357.5 105q225 0 426 -98l-72 -166q-167 96 -359 96q-134 0 -212 -52t-78 -138q0 -57 22 -94.5t89.5 -78t199.5 -89.5 q234 -87 329 -190t95 -253q0 -196 -144 -308t-376 -112q-146 0 -270 39t-210 107z" />
<glyph unicode="T" horiz-adv-x="1116" d="M20 1262v172h1076v-172h-441v-1262h-194v1262h-441z" />
<glyph unicode="U" horiz-adv-x="1372" d="M154 545v889h194v-859q0 -208 84.5 -319t251.5 -111q172 0 259 109t87 321v859h189v-881q0 -269 -145.5 -423.5t-389.5 -154.5q-251 0 -390.5 148.5t-139.5 421.5z" />
<glyph unicode="V" horiz-adv-x="1310" d="M20 1382l191 74l451 -1243l452 1237l176 -68l-524 -1382h-219z" />
<glyph unicode="W" horiz-adv-x="1931" d="M31 1386l192 62l324 -1241l305 1077h244l303 -1077l321 1235l181 -56l-388 -1386h-241l-303 1077l-307 -1077h-242z" />
<glyph unicode="X" horiz-adv-x="1243" d="M20 100l482 629l-461 602l162 121l415 -582l412 576l152 -115l-447 -592l488 -639l-158 -120l-453 614l-438 -610z" />
<glyph unicode="Y" horiz-adv-x="1226" d="M20 1354l164 98l439 -727l430 719l153 -90l-493 -809v-545h-195v545z" />
<glyph unicode="Z" horiz-adv-x="1177" d="M82 0v152l762 1114h-727v168h950v-148l-762 -1114h791v-172h-1014z" />
<glyph unicode="[" horiz-adv-x="614" d="M164 -205v1721h358v-154h-194v-1413h194v-154h-358z" />
<glyph unicode="\" horiz-adv-x="921" d="M96 1532l152 51l577 -1677l-151 -51z" />
<glyph unicode="]" horiz-adv-x="614" d="M92 -51h195v1413h-195v154h359v-1721h-359v154z" />
<glyph unicode="^" d="M193 1171l380 345h86l377 -345l-116 -127l-304 302l-309 -302z" />
<glyph unicode="_" d="M0 -113h1229v-123h-1229v123z" />
<glyph unicode="`" horiz-adv-x="636" d="M82 1386l86 173l387 -256l-63 -125z" />
<glyph unicode="a" horiz-adv-x="1263" d="M92 526q0 240 142 402t362 162q162 0 297 -111v86h168v-807q0 -125 121 -125l-39 -143q-196 0 -238 160q-125 -175 -334 -175q-99 0 -187 39.5t-152.5 109.5t-102 174.5t-37.5 227.5zM281 532q0 -172 94 -282.5t237 -110.5q75 0 146 36.5t119 96.5v572q-125 86 -263 86 q-148 0 -240.5 -110t-92.5 -288z" />
<glyph unicode="b" horiz-adv-x="1216" d="M164 0v1516h184v-562q50 55 129 95.5t178 40.5q93 0 177.5 -37.5t149.5 -105.5t103.5 -173t38.5 -231q0 -124 -41 -232t-108.5 -180.5t-154 -114t-177.5 -41.5q-88 0 -169.5 32t-137.5 81v-88h-172zM348 221q105 -82 246 -82q151 0 246.5 109.5t95.5 288.5t-92.5 286 t-229.5 107q-82 0 -153.5 -41t-112.5 -98v-570z" />
<glyph unicode="c" horiz-adv-x="966" d="M92 532q0 154 62 280.5t181 202t273 75.5q160 0 291 -64l-55 -156q-112 56 -226 56q-148 0 -242.5 -105t-94.5 -284q0 -169 90.5 -283.5t234.5 -114.5q73 0 129 16t123 52l57 -156q-139 -76 -321 -76q-227 0 -364.5 154.5t-137.5 402.5z" />
<glyph unicode="d" horiz-adv-x="1255" d="M92 526q0 119 38 224.5t101.5 179.5t150.5 117t183 43t173.5 -39t129.5 -93v558h185v-1258q0 -125 121 -125l-39 -143q-194 0 -238 155q-121 -170 -330 -170q-99 0 -185.5 39.5t-151 109.5t-101.5 174.5t-37 227.5zM281 532q0 -170 93.5 -281.5t233.5 -111.5q73 0 142 35 t118 94v529q-43 55 -113 94t-149 39q-146 0 -235.5 -113.5t-89.5 -284.5z" />
<glyph unicode="e" horiz-adv-x="1114" d="M92 532q0 242 134 400t347 158q147 0 253 -68t156 -178t50 -248q0 -72 -6 -139h-745q19 -150 105 -234t226 -84q154 0 308 70l43 -158q-166 -76 -373 -76q-231 0 -364.5 147.5t-133.5 409.5zM279 606h583q0 154 -78 239t-215 85q-122 0 -198.5 -84t-91.5 -240z" />
<glyph unicode="f" horiz-adv-x="712" d="M20 866v160h164v125q0 178 100 283.5t263 105.5q137 0 268 -67l-55 -156q-108 59 -201 59q-88 0 -139 -55.5t-51 -157.5v-137h315v-160h-315v-866h-185v866h-164z" />
<glyph unicode="g" horiz-adv-x="1198" d="M92 537q0 156 66.5 283.5t179.5 198.5t248 71q160 0 291 -107v82h167v-1040q0 -172 -62 -285.5t-169.5 -164t-257.5 -50.5q-202 0 -342 90l68 160q116 -90 274 -90q150 0 230.5 78.5t80.5 242.5v131q-48 -57 -126 -97t-175 -40q-92 0 -176.5 36.5t-151 103t-106 170 t-39.5 227.5zM281 547q0 -170 95.5 -276.5t229.5 -106.5q77 0 143 34.5t111 88.5v557q-122 86 -256 86q-133 0 -228 -104t-95 -279z" />
<glyph unicode="h" horiz-adv-x="1212" d="M164 0v1516h184v-621q134 195 352 195q176 0 267.5 -106t91.5 -290v-694h-185v674q0 117 -53 185.5t-149 68.5q-90 0 -175.5 -62.5t-148.5 -160.5v-705h-184z" />
<glyph unicode="i" horiz-adv-x="512" d="M127 1376q0 59 34.5 94t94.5 35q54 0 91.5 -38t37.5 -91q0 -59 -34.5 -94t-94.5 -35q-54 0 -91.5 38t-37.5 91zM164 0v1065h184v-1065h-184z" />
<glyph unicode="j" horiz-adv-x="530" d="M-174 -428l45 154q62 -41 141 -41q86 0 130 55.5t44 161.5v1163h185v-1182q0 -121 -46 -203t-120 -118.5t-170 -36.5q-126 0 -209 47zM150 1376q0 59 34.5 94t94.5 35q54 0 91.5 -38t37.5 -91q0 -59 -34.5 -94t-94.5 -35q-54 0 -91.5 38t-37.5 91z" />
<glyph unicode="k" horiz-adv-x="1046" d="M164 0v1516h184v-867l481 436l107 -116l-412 -365l502 -502l-127 -122l-551 567v-547h-184z" />
<glyph unicode="l" horiz-adv-x="708" d="M154 334v1182h184v-1164q0 -108 45.5 -162.5t128.5 -54.5q69 0 141 31l45 -150q-87 -41 -211 -41q-151 0 -242 88t-91 271z" />
<glyph unicode="m" horiz-adv-x="1873" d="M164 0v1065h178v-178q61 92 149.5 147.5t196.5 55.5q123 0 205 -60t117 -166q71 106 158.5 166t207.5 60q168 0 256 -107.5t88 -288.5v-694h-184v680q0 111 -52.5 179.5t-140.5 68.5q-86 0 -165 -64t-144 -166v-698h-184v680q0 111 -52.5 179.5t-140.5 68.5 q-85 0 -165 -62t-144 -161v-705h-184z" />
<glyph unicode="n" horiz-adv-x="1212" d="M164 0v1065h178v-178q134 203 358 203q176 0 267.5 -106t91.5 -290v-694h-185v674q0 117 -54 185.5t-150 68.5q-90 0 -174.5 -62.5t-147.5 -160.5v-705h-184z" />
<glyph unicode="o" horiz-adv-x="1224" d="M82 532q0 253 150 405.5t380 152.5q111 0 208 -39.5t168.5 -110t113 -175t41.5 -228.5q0 -167 -69.5 -295.5t-190 -197.5t-271.5 -69q-230 0 -380 155.5t-150 401.5zM270 537q0 -163 99 -280.5t243 -117.5q159 0 250.5 108t91.5 285q0 106 -44.5 196t-123.5 144t-174 54 q-159 0 -250.5 -106t-91.5 -283z" />
<glyph unicode="p" horiz-adv-x="1255" d="M82 922l39 143q188 0 235 -150q18 26 46.5 53.5t70.5 56.5t100 47t121 18q93 0 177.5 -37.5t149.5 -105.5t103.5 -173t38.5 -231q0 -124 -38.5 -231.5t-102.5 -180.5t-148.5 -114.5t-175.5 -41.5q-89 0 -170.5 35.5t-140.5 89.5v-551h-184v1244q0 129 -121 129zM387 266 q120 -127 275 -127q140 0 226.5 110t86.5 288q0 179 -92.5 286t-229.5 107q-82 0 -153.5 -41t-112.5 -98v-525z" />
<glyph unicode="q" horiz-adv-x="1216" d="M92 528q0 123 39.5 229t107 178.5t158 113.5t191.5 41q162 0 297 -111v86h168v-1516h-185v560q-51 -55 -128.5 -94.5t-170.5 -39.5q-94 0 -179.5 37t-152 105t-106 174.5t-39.5 236.5zM281 535q0 -179 96.5 -287.5t232.5 -108.5q77 0 145 36.5t113 92.5v576 q-125 86 -262 86t-231 -107t-94 -288z" />
<glyph unicode="r" horiz-adv-x="817" d="M164 0v1065h178v-231q43 111 129 183.5t213 72.5q66 0 113 -13l-56 -190q-40 16 -92 16q-59 0 -111.5 -24.5t-95.5 -72.5t-68.5 -127.5t-25.5 -180.5v-498h-184z" />
<glyph unicode="s" horiz-adv-x="958" d="M72 86l78 154q54 -47 135.5 -76t171.5 -29q111 0 171 36.5t60 98.5q0 66 -54.5 110.5t-211.5 98.5q-156 53 -227.5 125t-71.5 193q0 127 109.5 210t295.5 83q178 0 326 -76l-51 -152q-127 74 -283 74q-100 0 -158.5 -41t-58.5 -96q0 -51 44.5 -85t166.5 -75 q200 -67 281.5 -148t81.5 -206q0 -142 -116 -226t-310 -84q-118 0 -216 30t-163 81z" />
<glyph unicode="t" horiz-adv-x="813" d="M20 866v160h189l39 336h141v-336h295v-160h-295v-514q0 -113 46.5 -163t123.5 -50q86 0 182 56l52 -148q-48 -29 -117.5 -50.5t-138.5 -21.5q-155 0 -243.5 102.5t-88.5 289.5v499h-185z" />
<glyph unicode="u" horiz-adv-x="1236" d="M154 373v692h184v-668q0 -125 53.5 -191.5t155.5 -66.5q168 0 303 125v801h184v-789q0 -81 33.5 -112t87.5 -31l-39 -143q-190 0 -235 151q-163 -166 -369 -166q-72 0 -134 22t-113.5 67.5t-81 124.5t-29.5 184z" />
<glyph unicode="v" horiz-adv-x="1091" d="M20 1016l168 69l363 -876l362 876l158 -69l-430 -1016h-192z" />
<glyph unicode="w" horiz-adv-x="1675" d="M51 1016l170 59l275 -866l249 780h199l244 -780l272 866l164 -59l-338 -1016h-203l-245 793l-248 -793h-203z" />
<glyph unicode="x" horiz-adv-x="1024" d="M20 100l379 441l-364 422l143 124l330 -425l323 417l138 -116l-355 -414l390 -449l-140 -118l-358 444l-354 -440z" />
<glyph unicode="y" horiz-adv-x="1071" d="M10 -434l41 153q62 -34 144 -34q92 0 157.5 59t124.5 213l47 123h-98l-416 936l164 74l397 -887l310 878l170 -65l-392 -1069q-87 -236 -197 -329t-272 -93q-118 0 -180 41z" />
<glyph unicode="z" horiz-adv-x="966" d="M72 0v145l587 760h-575v160h801v-141l-586 -760h596v-164h-823z" />
<glyph unicode="{" horiz-adv-x="614" d="M14 590v131q117 15 157 86.5t40 261.5q0 247 92.5 355.5t296.5 127.5v-116q-81 -19 -124.5 -54.5t-65 -107.5t-21.5 -197q0 -152 -23.5 -237t-71 -124t-138.5 -61q91 -22 138.5 -61t71 -124t23.5 -237q0 -125 21.5 -196.5t65 -107t124.5 -54.5v-117q-204 19 -296.5 128 t-92.5 356q0 190 -40 261.5t-157 86.5z" />
<glyph unicode="|" horiz-adv-x="614" d="M227 -205v1782h160v-1782h-160z" />
<glyph unicode="}" horiz-adv-x="614" d="M14 -125q81 19 124.5 54.5t65 107t21.5 196.5q0 152 24 237t71.5 124t138.5 61q-91 22 -138.5 61t-71.5 124t-24 237q0 125 -21.5 197t-65 107.5t-124.5 54.5v116q204 -19 296.5 -127.5t92.5 -355.5q0 -190 40 -261.5t157 -86.5v-131q-117 -15 -157 -86.5t-40 -261.5 q0 -247 -92.5 -356t-296.5 -128v117z" />
<glyph unicode="~" d="M156 670q52 52 123 91.5t143 39.5q50 0 102.5 -18.5t89 -41t82 -41t84.5 -18.5q65 0 116 30.5t103 82.5l74 -136q-148 -141 -285 -141q-47 0 -99 18.5t-89.5 41t-85.5 41t-88 18.5q-94 0 -199 -96z" />
<glyph unicode="&#xa1;" horiz-adv-x="643" d="M184 952q0 63 37 100.5t101 37.5q54 0 95.5 -41.5t41.5 -96.5q0 -61 -38.5 -99t-98.5 -38q-56 0 -97 41t-41 96zM215 84l27 559h151l27 -559v-535h-205v535z" />
<glyph unicode="&#xa2;" horiz-adv-x="921" d="M70 590q0 141 52 259t152 196t232 96l-17 223h181l-17 -219q119 -11 224 -62l-56 -155q-110 55 -225 55q-148 0 -243 -105t-95 -284q0 -169 91 -283t235 -114q73 0 129.5 15.5t122.5 51.5l57 -155q-111 -60 -242 -74l19 -230h-181l17 232q-200 23 -318 173.5t-118 379.5z " />
<glyph unicode="&#xa3;" d="M176 657v156h156v250q0 185 100.5 290t272.5 105q166 0 317 -88l-61 -145q-126 78 -238 78q-98 0 -156.5 -63t-58.5 -200v-227h344v-156h-346q-4 -177 -36 -286.5t-97 -200.5h680v-170h-875v150q86 120 117.5 222.5t34.5 284.5h-154z" />
<glyph unicode="&#xa4;" d="M188 293l119 135q-92 113 -92 264q0 154 92 264l-119 136l129 108l113 -151q84 41 184 41q99 0 185 -39l112 149l129 -108l-118 -136q92 -113 92 -264q0 -154 -92 -264l118 -135l-129 -109l-112 152q-84 -41 -185 -41q-98 0 -184 39l-113 -150zM385 694q0 -104 66 -178 t163 -74q108 0 169 67t61 181q0 104 -66.5 178t-163.5 74q-108 0 -168.5 -67t-60.5 -181z" />
<glyph unicode="&#xa5;" d="M33 1354l164 98l428 -733l419 725l154 -90l-401 -660h239v-149h-321v-137h321v-150h-321v-258h-195v258h-323v150h323v137h-323v149h239z" />
<glyph unicode="&#xa6;" horiz-adv-x="614" d="M227 -205v731h160v-731h-160zM227 864v713h160v-713h-160z" />
<glyph unicode="&#xa7;" d="M221 -51l74 139q124 -88 283 -88q103 0 162 32t59 89q0 55 -53 103.5t-195 109.5q-175 75 -246.5 147t-71.5 181q0 101 70 179t191 122q-116 53 -170 113t-54 147q0 122 106 200t281 78q85 0 172 -25t154 -65l-78 -127q-50 33 -117.5 56.5t-134.5 23.5q-101 0 -158 -39 t-57 -88q0 -58 53.5 -101t225.5 -116q154 -66 221.5 -140t67.5 -175q0 -200 -258 -306q116 -51 170.5 -115t54.5 -149q0 -128 -110 -205t-290 -77q-209 0 -352 96zM403 680q0 -135 218 -215q99 31 157 87t58 134q0 70 -48.5 122.5t-158.5 92.5q-104 -31 -165 -87t-61 -134z " />
<glyph unicode="&#xa8;" horiz-adv-x="823" d="M102 1366q0 56 33 89.5t90 33.5q51 0 87 -36.5t36 -86.5q0 -56 -33 -89.5t-90 -33.5q-51 0 -87 36.5t-36 86.5zM475 1366q0 56 33 89.5t90 33.5q51 0 87 -36.5t36 -86.5q0 -56 -33 -89.5t-90 -33.5q-51 0 -87 36.5t-36 86.5z" />
<glyph unicode="&#xa9;" horiz-adv-x="1843" d="M207 717q0 155 48.5 289.5t138 235t225.5 158.5t303 58q169 0 305.5 -56t225 -155t136 -234.5t47.5 -295.5q0 -155 -48.5 -290t-138 -235.5t-226 -158.5t-303.5 -58q-169 0 -305 56t-225 155.5t-136 235t-47 295.5zM356 717q0 -180 64.5 -317.5t193.5 -216.5t308 -79 q135 0 242.5 45.5t178 127.5t107.5 194t37 246q0 180 -64 317t-193 216t-308 79t-308.5 -79.5t-193.5 -216t-64 -316.5zM549 717q0 207 114 337t302 130q119 0 237 -56l-57 -151q-96 49 -182 49q-107 0 -173.5 -80.5t-66.5 -222.5q0 -138 67.5 -222.5t172.5 -84.5 q90 0 200 63l54 -149q-124 -72 -269 -72q-179 0 -289 124.5t-110 334.5z" />
<glyph unicode="&#xaa;" d="M209 1051q0 176 107.5 286.5t263.5 110.5q101 0 196 -59v45h152v-545q0 -90 92 -90l-37 -129q-138 0 -186 98q-97 -106 -234 -106q-68 0 -131 26t-113 73.5t-80 123t-30 166.5zM266 270v168h697v-168h-697zM371 1055q0 -112 65 -181t154 -69q100 0 176 90v360 q-81 52 -170 52q-97 0 -161 -67t-64 -185z" />
<glyph unicode="&#xab;" horiz-adv-x="1159" d="M123 662v86l323 397l119 -101l-291 -339l291 -340l-119 -101zM532 662v86l324 397l119 -101l-291 -339l291 -340l-119 -101z" />
<glyph unicode="&#xac;" d="M133 616v168h963v-538h-185v370h-778z" />
<glyph unicode="&#xad;" d="M266 618v168h697v-168h-697z" />
<glyph unicode="&#xae;" horiz-adv-x="1843" d="M207 717q0 155 48.5 289.5t138 235t225.5 158.5t303 58q169 0 305.5 -56t225 -155t136 -234.5t47.5 -295.5q0 -155 -48.5 -290t-138 -235.5t-226 -158.5t-303.5 -58q-169 0 -305 56t-225 155.5t-136 235t-47 295.5zM356 717q0 -180 64.5 -317.5t193.5 -216.5t308 -79 q135 0 242.5 45.5t178 127.5t107.5 194t37 246q0 180 -64 317t-193 216t-308 79t-308.5 -79.5t-193.5 -216t-64 -316.5zM649 293v866q139 15 246 15q164 0 254 -62t90 -182q0 -83 -46 -135t-140 -82q46 -21 78.5 -58t60.5 -98l98 -215l-151 -70l-111 246q-63 134 -217 137 v-362h-162zM811 801h102q76 0 121 31t45 88q0 48 -44 78t-122 30q-40 0 -102 -4v-223z" />
<glyph unicode="&#xaf;" horiz-adv-x="839" d="M123 1284v150h594v-150h-594z" />
<glyph unicode="&#xb0;" horiz-adv-x="921" d="M102 1227q0 123 87 206t210 83t210 -83t87 -206t-87 -206t-210 -83t-210 83t-87 206zM264 1227q0 -62 37 -103t98 -41q62 0 99 38t37 106q0 62 -37.5 102.5t-98.5 40.5q-63 0 -99 -36t-36 -107z" />
<glyph unicode="&#xb1;" d="M266 147v168h697v-168h-697zM266 807v160h262v278h174v-278h261v-160h-261v-277h-174v277h-262z" />
<glyph unicode="&#xb2;" horiz-adv-x="921" d="M160 639q0 62 24 119t62 100.5t84 83.5t92 74t84 65.5t62 65t24 65.5q0 43 -37 73t-92 30q-96 0 -197 -82l-96 102q138 113 309 113q126 0 203.5 -64t77.5 -161q0 -47 -21 -91t-55 -79.5t-76 -69.5t-85 -67t-80 -65.5t-64.5 -71t-34.5 -77.5h418v-137h-598q-4 40 -4 74z " />
<glyph unicode="&#xb3;" horiz-adv-x="921" d="M145 633l78 121q107 -66 197 -66t140 35.5t50 91.5q0 61 -60.5 101t-178.5 40h-95v125h89q109 0 164 39t55 90q0 44 -46 75.5t-112 31.5q-90 0 -182 -66l-74 121q136 76 262 76q145 0 231.5 -66.5t86.5 -158.5q0 -68 -29.5 -114.5t-93.5 -78.5q72 -32 110.5 -87 t38.5 -124q0 -110 -91 -188t-265 -78q-149 0 -275 80z" />
<glyph unicode="&#xb4;" horiz-adv-x="636" d="M82 1303l387 256l86 -173l-410 -208z" />
<glyph unicode="&#xb5;" d="M184 -451v1516h176v-678q0 -123 64.5 -185.5t159.5 -62.5q151 0 284 121v805h176v-1065h-170v121q-149 -146 -319 -146q-137 0 -205 84v-510h-166z" />
<glyph unicode="&#xb6;" horiz-adv-x="1536" d="M217 1190q0 178 132 291.5t362 113.5q146 0 319 -18v-1708h-160v954q-68 -10 -151 -10q-233 0 -367.5 101t-134.5 276zM401 1200q0 -102 84.5 -165.5t223.5 -63.5q93 0 161 10v449q-106 8 -170 8q-148 0 -223.5 -66.5t-75.5 -171.5zM1157 -131v1708h160v-1708h-160z" />
<glyph unicode="&#xb7;" horiz-adv-x="614" d="M170 727q0 63 36.5 100t100.5 37q54 0 95.5 -41t41.5 -96q0 -61 -38.5 -99t-98.5 -38q-55 0 -96 41t-41 96z" />
<glyph unicode="&#xb8;" horiz-adv-x="608" d="M61 -459l50 129q66 -35 147 -35q55 0 89 19.5t34 56.5q0 94 -231 94l71 195h139l-43 -121q106 0 168 -46.5t62 -135.5q0 -82 -73.5 -139.5t-207.5 -57.5q-119 0 -205 41z" />
<glyph unicode="&#xb9;" horiz-adv-x="921" d="M166 1243l309 191h117v-736h164v-133h-525v133h197v541l-168 -109z" />
<glyph unicode="&#xba;" d="M223 1055q0 179 111 286t282 107q167 0 278.5 -107.5t111.5 -283.5q0 -178 -110 -286.5t-280 -108.5q-171 0 -282 109.5t-111 283.5zM266 270v168h697v-168h-697zM387 1057q0 -104 66 -178t163 -74q105 0 165.5 68t60.5 182q0 104 -65 177t-161 73q-108 0 -168.5 -67 t-60.5 -181z" />
<glyph unicode="&#xbb;" horiz-adv-x="1159" d="M184 365l291 340l-291 339l119 101l324 -397v-86l-324 -398zM594 365l291 340l-291 339l119 101l323 -397v-86l-323 -398z" />
<glyph unicode="&#xbc;" horiz-adv-x="1843" d="M76 1243l309 191h117v-736h164v-133h-525v133h197v541l-168 -109zM469 -4l895 1520l123 -78l-895 -1520zM1083 178v107l295 596l146 -54l-252 -514h221v234h158v-234h116v-135h-116v-178h-158v178h-410z" />
<glyph unicode="&#xbd;" horiz-adv-x="1843" d="M66 1243l309 191h117v-736h163v-133h-524v133h197v541l-168 -109zM438 -4l895 1520l123 -78l-895 -1520zM1176 74q0 62 24 119t62 100.5t84 83.5t92 74t84 65.5t62 65t24 65.5q0 43 -37 73t-92 30q-96 0 -197 -82l-96 102q138 113 309 113q125 0 203 -64.5t78 -161.5 q0 -54 -28.5 -105t-71 -89t-94.5 -79.5t-97.5 -76.5t-80.5 -80t-44 -90h418v-137h-598q-4 40 -4 74z" />
<glyph unicode="&#xbe;" horiz-adv-x="1843" d="M98 633l78 121q107 -66 197 -66t140 35.5t50 91.5q0 61 -60.5 101t-178.5 40h-95v125h88q109 0 164.5 39t55.5 90q0 44 -46 75.5t-112 31.5q-90 0 -182 -66l-74 121q136 76 262 76q145 0 231 -66.5t86 -158.5q0 -68 -29 -114.5t-93 -78.5q72 -32 110.5 -87t38.5 -124 q0 -110 -91 -188t-265 -78q-149 0 -275 80zM449 -4l894 1520l123 -78l-895 -1520zM1061 178v107l295 596l145 -54l-252 -514h221v234h158v-234h117v-135h-117v-178h-158v178h-409z" />
<glyph unicode="&#xbf;" horiz-adv-x="1005" d="M102 -141q0 70 22.5 129.5t58 101t78.5 79.5t86 74t78.5 75t58 92t22.5 116v115h160q20 -64 20 -152q0 -71 -21 -131t-55 -102t-75.5 -79.5t-82.5 -70.5t-75 -66.5t-55 -76t-21 -90.5q0 -74 57 -127t148 -53q156 0 274 153l133 -106q-87 -106 -188 -160.5t-236 -54.5 q-168 0 -277.5 97t-109.5 237zM438 952q0 63 36.5 100.5t100.5 37.5q54 0 96 -41.5t42 -96.5q0 -61 -39 -99t-99 -38q-55 0 -96 40.5t-41 96.5z" />
<glyph unicode="&#xc0;" horiz-adv-x="1368" d="M20 51l562 1383h213l553 -1383l-179 -71l-159 409h-664l-160 -405zM408 553h538l-268 688zM451 1712l86 172l387 -256l-64 -125z" />
<glyph unicode="&#xc1;" horiz-adv-x="1368" d="M20 51l562 1383h213l553 -1383l-179 -71l-159 409h-664l-160 -405zM408 553h538l-268 688zM440 1628l387 256l86 -172l-409 -209z" />
<glyph unicode="&#xc2;" horiz-adv-x="1368" d="M20 51l562 1383h213l553 -1383l-179 -71l-159 409h-664l-160 -405zM315 1679l301 164h132l299 -164l-89 -159l-276 194l-279 -194zM408 553h538l-268 688z" />
<glyph unicode="&#xc3;" horiz-adv-x="1368" d="M20 51l562 1383h213l553 -1383l-179 -71l-159 409h-664l-160 -405zM354 1679q41 44 98.5 75.5t114.5 31.5q53 0 124 -35t112 -35q73 0 141 64l72 -129q-99 -95 -197 -95q-55 0 -127.5 35t-116.5 35q-71 0 -149 -74zM408 553h538l-268 688z" />
<glyph unicode="&#xc4;" horiz-adv-x="1368" d="M20 51l562 1383h213l553 -1383l-179 -71l-159 409h-664l-160 -405zM379 1679q0 56 33 89.5t90 33.5q51 0 87 -36.5t36 -86.5q0 -56 -33 -89.5t-90 -33.5q-51 0 -87 36.5t-36 86.5zM408 553h538l-268 688zM752 1679q0 56 32.5 89.5t89.5 33.5q51 0 87 -36.5t36 -86.5 q0 -56 -33 -89.5t-90 -33.5q-51 0 -86.5 36.5t-35.5 86.5z" />
<glyph unicode="&#xc5;" horiz-adv-x="1368" d="M20 51l525 1292q-55 31 -86 86t-31 123q0 106 74.5 176t181.5 70q106 0 181 -70t75 -176q0 -66 -30 -118.5t-83 -85.5l521 -1297l-179 -71l-159 409h-664l-160 -405zM408 553h538l-268 688zM586 1552q0 -48 24.5 -81.5t63.5 -36.5h18q40 3 65 34.5t25 83.5q0 49 -27 84 t-71 35q-46 0 -72 -30t-26 -89z" />
<glyph unicode="&#xc6;" horiz-adv-x="1880" d="M10 80l850 1354h928v-168h-651v-437h559v-163h-559v-498h651v-168h-840v389h-530l-250 -407zM518 553h430v698z" />
<glyph unicode="&#xc7;" horiz-adv-x="1216" d="M102 711q0 218 80.5 387.5t231 264.5t346.5 95q190 0 344 -74l-60 -163q-137 67 -286 67q-203 0 -330 -152.5t-127 -416.5q0 -256 128 -415t329 -159q94 0 167.5 22t149.5 66l60 -161q-166 -92 -381 -97l-33 -96q106 0 167.5 -46.5t61.5 -135.5q0 -82 -73 -139.5 t-207 -57.5q-119 0 -205 41l49 129q66 -35 148 -35q55 0 88.5 19.5t33.5 56.5q0 94 -231 94l65 181q-236 39 -376 231.5t-140 493.5z" />
<glyph unicode="&#xc8;" horiz-adv-x="1136" d="M184 0v1434h860v-168h-665v-437h573v-163h-573v-498h665v-168h-860zM375 1712l86 172l387 -256l-64 -125z" />
<glyph unicode="&#xc9;" horiz-adv-x="1136" d="M184 0v1434h860v-168h-665v-437h573v-163h-573v-498h665v-168h-860zM387 1628l387 256l86 -172l-409 -209z" />
<glyph unicode="&#xca;" horiz-adv-x="1136" d="M184 0v1434h860v-168h-665v-437h573v-163h-573v-498h665v-168h-860zM266 1679l301 164h131l299 -164l-88 -159l-276 194l-279 -194z" />
<glyph unicode="&#xcb;" horiz-adv-x="1136" d="M184 0v1434h860v-168h-665v-437h573v-163h-573v-498h665v-168h-860zM322 1679q0 56 32.5 89.5t89.5 33.5q51 0 87 -36.5t36 -86.5q0 -56 -33 -89.5t-90 -33.5q-51 0 -86.5 36.5t-35.5 86.5zM694 1679q0 56 33 89.5t90 33.5q51 0 87 -36.5t36 -86.5q0 -56 -33 -89.5 t-90 -33.5q-51 0 -87 36.5t-36 86.5z" />
<glyph unicode="&#xcc;" horiz-adv-x="563" d="M53 1712l86 172l387 -256l-63 -125zM184 0v1434h195v-1434h-195z" />
<glyph unicode="&#xcd;" horiz-adv-x="563" d="M39 1628l387 256l86 -172l-410 -209zM184 0v1434h195v-1434h-195z" />
<glyph unicode="&#xce;" horiz-adv-x="563" d="M-84 1679l301 164h131l299 -164l-88 -159l-276 194l-279 -194zM182 0v1434h195v-1434h-195z" />
<glyph unicode="&#xcf;" horiz-adv-x="563" d="M-29 1679q0 56 33 89.5t90 33.5q51 0 87 -36.5t36 -86.5q0 -56 -33 -89.5t-90 -33.5q-51 0 -87 36.5t-36 86.5zM184 0v1434h195v-1434h-195zM344 1679q0 56 33 89.5t90 33.5q51 0 87 -36.5t36 -86.5q0 -56 -33 -89.5t-90 -33.5q-51 0 -87 36.5t-36 86.5z" />
<glyph unicode="&#xd0;" horiz-adv-x="1437" d="M20 623v163h205v644q212 20 400 20q178 0 316.5 -57.5t223 -158.5t127.5 -231t43 -284q0 -122 -26.5 -230t-84.5 -201t-142.5 -160t-207 -105.5t-272.5 -38.5q-185 0 -377 20v619h-205zM420 164q71 -10 188 -10q266 0 397.5 152t131.5 413q0 113 -32 212.5t-93.5 179 t-163 125.5t-230.5 46q-106 0 -198 -10v-486h303v-163h-303v-459z" />
<glyph unicode="&#xd1;" horiz-adv-x="1443" d="M184 0v1434h258l633 -1192v1192h185v-1434h-254l-637 1184v-1184h-185zM395 1679q41 44 98.5 75.5t114.5 31.5q53 0 124 -35t112 -35q73 0 141 64l72 -129q-99 -95 -197 -95q-55 0 -127.5 35t-116.5 35q-71 0 -149 -74z" />
<glyph unicode="&#xd2;" horiz-adv-x="1558" d="M102 719q0 211 79.5 377.5t234.5 264t362 97.5q155 0 283.5 -58t214.5 -158.5t133 -235t47 -287.5q0 -154 -47 -289.5t-132.5 -236.5t-214.5 -159.5t-284 -58.5q-125 0 -233 38t-188.5 106t-138.5 160.5t-87 204.5t-29 235zM301 719q0 -112 33 -215.5t92.5 -184 t151 -128.5t200.5 -48q153 0 263 76.5t163 204.5t53 295q0 111 -33 213t-93 182t-152 128t-201 48q-147 0 -256.5 -75.5t-165 -204t-55.5 -291.5zM551 1712l86 172l387 -256l-63 -125z" />
<glyph unicode="&#xd3;" horiz-adv-x="1558" d="M102 719q0 211 79.5 377.5t234.5 264t362 97.5q155 0 283.5 -58t214.5 -158.5t133 -235t47 -287.5q0 -154 -47 -289.5t-132.5 -236.5t-214.5 -159.5t-284 -58.5q-125 0 -233 38t-188.5 106t-138.5 160.5t-87 204.5t-29 235zM301 719q0 -112 33 -215.5t92.5 -184 t151 -128.5t200.5 -48q153 0 263 76.5t163 204.5t53 295q0 111 -33 213t-93 182t-152 128t-201 48q-147 0 -256.5 -75.5t-165 -204t-55.5 -291.5zM588 1628l387 256l86 -172l-410 -209z" />
<glyph unicode="&#xd4;" horiz-adv-x="1558" d="M102 719q0 211 79.5 377.5t234.5 264t362 97.5q155 0 283.5 -58t214.5 -158.5t133 -235t47 -287.5q0 -154 -47 -289.5t-132.5 -236.5t-214.5 -159.5t-284 -58.5q-125 0 -233 38t-188.5 106t-138.5 160.5t-87 204.5t-29 235zM301 719q0 -112 33 -215.5t92.5 -184 t151 -128.5t200.5 -48q153 0 263 76.5t163 204.5t53 295q0 111 -33 213t-93 182t-152 128t-201 48q-147 0 -256.5 -75.5t-165 -204t-55.5 -291.5zM416 1679l301 164h131l299 -164l-88 -159l-277 194l-278 -194z" />
<glyph unicode="&#xd5;" horiz-adv-x="1558" d="M102 719q0 211 79.5 377.5t234.5 264t362 97.5q155 0 283.5 -58t214.5 -158.5t133 -235t47 -287.5q0 -154 -47 -289.5t-132.5 -236.5t-214.5 -159.5t-284 -58.5q-125 0 -233 38t-188.5 106t-138.5 160.5t-87 204.5t-29 235zM301 719q0 -112 33 -215.5t92.5 -184 t151 -128.5t200.5 -48q153 0 263 76.5t163 204.5t53 295q0 111 -33 213t-93 182t-152 128t-201 48q-147 0 -256.5 -75.5t-165 -204t-55.5 -291.5zM463 1679q41 44 98.5 75.5t114.5 31.5q53 0 123.5 -35t111.5 -35q74 0 142 64l71 -129q-99 -95 -196 -95q-55 0 -127.5 35 t-116.5 35q-71 0 -149 -74z" />
<glyph unicode="&#xd6;" horiz-adv-x="1558" d="M102 719q0 211 79.5 377.5t234.5 264t362 97.5q155 0 283.5 -58t214.5 -158.5t133 -235t47 -287.5q0 -154 -47 -289.5t-132.5 -236.5t-214.5 -159.5t-284 -58.5q-125 0 -233 38t-188.5 106t-138.5 160.5t-87 204.5t-29 235zM301 719q0 -112 33 -215.5t92.5 -184 t151 -128.5t200.5 -48q153 0 263 76.5t163 204.5t53 295q0 111 -33 213t-93 182t-152 128t-201 48q-147 0 -256.5 -75.5t-165 -204t-55.5 -291.5zM481 1679q0 56 33 89.5t90 33.5q51 0 87 -36.5t36 -86.5q0 -56 -33 -89.5t-90 -33.5q-51 0 -87 36.5t-36 86.5zM854 1679 q0 56 33 89.5t90 33.5q51 0 87 -36.5t36 -86.5q0 -56 -33 -89.5t-90 -33.5q-51 0 -87 36.5t-36 86.5z" />
<glyph unicode="&#xd7;" d="M227 430l277 275l-277 276l113 113l274 -279l275 279l112 -113l-276 -276l276 -275l-112 -111l-275 275l-274 -275z" />
<glyph unicode="&#xd8;" horiz-adv-x="1558" d="M102 719q0 211 79.5 377.5t234.5 264t362 97.5q133 0 256 -49l107 248l168 -78l-133 -248q134 -99 207 -259t73 -353q0 -154 -47 -289.5t-132.5 -236.5t-214.5 -159.5t-284 -58.5q-118 0 -231 37l-109 -254l-168 78l131 248q-143 97 -221 264.5t-78 370.5zM301 719 q0 -138 48 -261t136 -204l476 997q-80 39 -183 39q-147 0 -256.5 -75.5t-165 -204t-55.5 -291.5zM618 172q76 -29 160 -29q153 0 263 76.5t163 204.5t53 295q0 128 -43.5 245t-123.5 195z" />
<glyph unicode="&#xd9;" horiz-adv-x="1372" d="M154 545v889h194v-859q0 -208 84.5 -319t251.5 -111q172 0 259 109t87 321v859h189v-881q0 -269 -145.5 -423.5t-389.5 -154.5q-251 0 -390.5 148.5t-139.5 421.5zM444 1712l86 172l388 -256l-64 -125z" />
<glyph unicode="&#xda;" horiz-adv-x="1372" d="M154 545v889h194v-859q0 -208 84.5 -319t251.5 -111q172 0 259 109t87 321v859h189v-881q0 -269 -145.5 -423.5t-389.5 -154.5q-251 0 -390.5 148.5t-139.5 421.5zM481 1628l387 256l86 -172l-409 -209z" />
<glyph unicode="&#xdb;" horiz-adv-x="1372" d="M154 545v889h194v-859q0 -208 84.5 -319t251.5 -111q172 0 259 109t87 321v859h189v-881q0 -269 -145.5 -423.5t-389.5 -154.5q-251 0 -390.5 148.5t-139.5 421.5zM324 1679l301 164h131l299 -164l-88 -159l-277 194l-278 -194z" />
<glyph unicode="&#xdc;" horiz-adv-x="1372" d="M154 545v889h194v-859q0 -208 84.5 -319t251.5 -111q172 0 259 109t87 321v859h189v-881q0 -269 -145.5 -423.5t-389.5 -154.5q-251 0 -390.5 148.5t-139.5 421.5zM381 1679q0 56 33 89.5t90 33.5q51 0 87 -36.5t36 -86.5q0 -56 -33 -89.5t-90 -33.5q-51 0 -87 36.5 t-36 86.5zM754 1679q0 56 33 89.5t90 33.5q51 0 86.5 -36.5t35.5 -86.5q0 -56 -32.5 -89.5t-89.5 -33.5q-51 0 -87 36.5t-36 86.5z" />
<glyph unicode="&#xdd;" horiz-adv-x="1226" d="M20 1354l164 98l439 -727l430 719l153 -90l-493 -809v-545h-195v545zM395 1628l387 256l86 -172l-409 -209z" />
<glyph unicode="&#xde;" horiz-adv-x="1191" d="M184 0v1434h195v-248q94 6 201 6q263 0 412 -120.5t149 -315.5q0 -227 -164.5 -354.5t-437.5 -127.5q-67 0 -160 5v-279h-195zM379 446q62 -8 184 -8q181 0 282 81t101 220q0 134 -97.5 211.5t-273.5 77.5q-120 0 -196 -8v-574z" />
<glyph unicode="&#xdf;" horiz-adv-x="1290" d="M61 899l48 166q123 0 174 -88q0 281 126 422t345 141q176 0 291.5 -106t115.5 -258q0 -131 -62 -219t-192 -144q149 -51 225 -151.5t76 -243.5q0 -193 -123 -318t-327 -125q-124 0 -207 39l41 160q68 -35 160 -35q119 0 193.5 74t74.5 201q0 131 -99 219t-268 88v149 q83 0 148 24.5t103 64.5t57.5 88t19.5 100q0 102 -69.5 165.5t-174.5 63.5q-70 0 -123 -25.5t-96 -83.5t-65.5 -163t-22.5 -254v-1301h-184v1166q0 184 -185 184z" />
<glyph unicode="&#xe0;" horiz-adv-x="1263" d="M92 526q0 240 142 402t362 162q162 0 297 -111v86h168v-807q0 -125 121 -125l-39 -143q-196 0 -238 160q-125 -175 -334 -175q-99 0 -187 39.5t-152.5 109.5t-102 174.5t-37.5 227.5zM281 532q0 -172 94 -282.5t237 -110.5q75 0 146 36.5t119 96.5v572q-125 86 -263 86 q-148 0 -240.5 -110t-92.5 -288zM383 1386l86 173l387 -256l-63 -125z" />
<glyph unicode="&#xe1;" horiz-adv-x="1263" d="M92 526q0 240 142 402t362 162q162 0 297 -111v86h168v-807q0 -125 121 -125l-39 -143q-196 0 -238 160q-125 -175 -334 -175q-99 0 -187 39.5t-152.5 109.5t-102 174.5t-37.5 227.5zM281 532q0 -172 94 -282.5t237 -110.5q75 0 146 36.5t119 96.5v572q-125 86 -263 86 q-148 0 -240.5 -110t-92.5 -288zM408 1303l387 256l86 -173l-410 -208z" />
<glyph unicode="&#xe2;" horiz-adv-x="1263" d="M92 526q0 240 142 402t362 162q162 0 297 -111v86h168v-807q0 -125 121 -125l-39 -143q-196 0 -238 160q-125 -175 -334 -175q-99 0 -187 39.5t-152.5 109.5t-102 174.5t-37.5 227.5zM262 1323l299 193h131l299 -193l-96 -152l-268 215l-269 -215zM281 532 q0 -172 94 -282.5t237 -110.5q75 0 146 36.5t119 96.5v572q-125 86 -263 86q-148 0 -240.5 -110t-92.5 -288z" />
<glyph unicode="&#xe3;" horiz-adv-x="1263" d="M92 526q0 240 142 402t362 162q162 0 297 -111v86h168v-807q0 -125 121 -125l-39 -143q-196 0 -238 160q-125 -175 -334 -175q-99 0 -187 39.5t-152.5 109.5t-102 174.5t-37.5 227.5zM281 532q0 -172 94 -282.5t237 -110.5q75 0 146 36.5t119 96.5v572q-125 86 -263 86 q-148 0 -240.5 -110t-92.5 -288zM305 1372q41 44 98.5 75.5t114.5 31.5q53 0 124 -35t112 -35q73 0 141 64l72 -130q-98 -94 -197 -94q-55 0 -127.5 35t-116.5 35q-71 0 -149 -74z" />
<glyph unicode="&#xe4;" horiz-adv-x="1263" d="M92 526q0 240 142 402t362 162q162 0 297 -111v86h168v-807q0 -125 121 -125l-39 -143q-196 0 -238 160q-125 -175 -334 -175q-99 0 -187 39.5t-152.5 109.5t-102 174.5t-37.5 227.5zM281 532q0 -172 94 -282.5t237 -110.5q75 0 146 36.5t119 96.5v572q-125 86 -263 86 q-148 0 -240.5 -110t-92.5 -288zM317 1366q0 56 33 89.5t90 33.5q51 0 87 -36.5t36 -86.5q0 -56 -33 -89.5t-90 -33.5q-51 0 -87 36.5t-36 86.5zM690 1366q0 56 33 89.5t90 33.5q51 0 87 -36.5t36 -86.5q0 -56 -33 -89.5t-90 -33.5q-51 0 -87 36.5t-36 86.5z" />
<glyph unicode="&#xe5;" horiz-adv-x="1263" d="M92 526q0 240 142 402t362 162q162 0 297 -111v86h168v-807q0 -125 121 -125l-39 -143q-196 0 -238 160q-125 -175 -334 -175q-99 0 -187 39.5t-152.5 109.5t-102 174.5t-37.5 227.5zM281 532q0 -172 94 -282.5t237 -110.5q75 0 146 36.5t119 96.5v572q-125 86 -263 86 q-148 0 -240.5 -110t-92.5 -288zM373 1438q0 106 74.5 175.5t181.5 69.5q106 0 181 -69.5t75 -175.5t-75 -176t-181 -70q-107 0 -181.5 70t-74.5 176zM530 1438q0 -50 27.5 -84.5t71.5 -34.5q43 0 70.5 32t27.5 87q0 49 -27 83.5t-71 34.5q-46 0 -72.5 -30t-26.5 -88z" />
<glyph unicode="&#xe6;" horiz-adv-x="1851" d="M82 303q0 162 126 258t329 96q149 0 290 -36q-20 147 -106 228t-223 81q-118 0 -252 -60l-39 156q163 64 309 64q301 0 410 -236q64 114 161.5 175t223.5 61q111 0 199.5 -39t144.5 -107t85 -156.5t29 -191.5q0 -72 -6 -139h-745q19 -150 105.5 -234t226.5 -84 q153 0 307 70l43 -158q-166 -76 -373 -76q-288 0 -420 248q-156 -248 -436 -248q-172 0 -280.5 94t-108.5 234zM270 317q0 -78 64.5 -128t159.5 -50q128 0 223 87.5t112 244.5q-132 37 -286 37q-123 0 -198 -53.5t-75 -137.5zM1016 606h583q0 154 -77.5 239t-214.5 85 q-122 0 -199 -84t-92 -240z" />
<glyph unicode="&#xe7;" horiz-adv-x="966" d="M92 532q0 154 62 280.5t181 202t273 75.5q160 0 291 -64l-55 -156q-112 56 -226 56q-148 0 -242.5 -105t-94.5 -284q0 -169 90.5 -283.5t234.5 -114.5q73 0 129 16t123 52l57 -156q-128 -70 -297 -76l-32 -96q106 0 167.5 -46.5t61.5 -135.5q0 -82 -73 -139.5t-207 -57.5 q-119 0 -205 41l49 129q66 -35 147 -35q55 0 89 19.5t34 56.5q0 94 -231 94l65 181q-181 35 -286 182.5t-105 363.5z" />
<glyph unicode="&#xe8;" horiz-adv-x="1114" d="M92 532q0 242 134 400t347 158q147 0 253 -68t156 -178t50 -248q0 -72 -6 -139h-745q19 -150 105 -234t226 -84q154 0 308 70l43 -158q-166 -76 -373 -76q-231 0 -364.5 147.5t-133.5 409.5zM279 606h583q0 154 -78 239t-215 85q-122 0 -198.5 -84t-91.5 -240zM352 1386 l86 173l387 -256l-63 -125z" />
<glyph unicode="&#xe9;" horiz-adv-x="1114" d="M92 532q0 242 134 400t347 158q147 0 253 -68t156 -178t50 -248q0 -72 -6 -139h-745q19 -150 105 -234t226 -84q154 0 308 70l43 -158q-166 -76 -373 -76q-231 0 -364.5 147.5t-133.5 409.5zM279 606h583q0 154 -78 239t-215 85q-122 0 -198.5 -84t-91.5 -240zM354 1303 l387 256l86 -173l-409 -208z" />
<glyph unicode="&#xea;" horiz-adv-x="1114" d="M92 532q0 242 134 400t347 158q147 0 253 -68t156 -178t50 -248q0 -72 -6 -139h-745q19 -150 105 -234t226 -84q154 0 308 70l43 -158q-166 -76 -373 -76q-231 0 -364.5 147.5t-133.5 409.5zM217 1323l299 193h131l299 -193l-96 -152l-268 215l-269 -215zM279 606h583 q0 154 -78 239t-215 85q-122 0 -198.5 -84t-91.5 -240z" />
<glyph unicode="&#xeb;" horiz-adv-x="1114" d="M92 532q0 242 134 400t347 158q147 0 253 -68t156 -178t50 -248q0 -72 -6 -139h-745q19 -150 105 -234t226 -84q154 0 308 70l43 -158q-166 -76 -373 -76q-231 0 -364.5 147.5t-133.5 409.5zM276 1366q0 56 33 89.5t90 33.5q51 0 87 -36.5t36 -86.5q0 -56 -33 -89.5 t-90 -33.5q-51 0 -87 36.5t-36 86.5zM279 606h583q0 154 -78 239t-215 85q-122 0 -198.5 -84t-91.5 -240zM649 1366q0 56 33 89.5t90 33.5q51 0 87 -36.5t36 -86.5q0 -56 -33 -89.5t-90 -33.5q-51 0 -87 36.5t-36 86.5z" />
<glyph unicode="&#xec;" horiz-adv-x="512" d="M27 1386l86 173l387 -256l-64 -125zM164 0v1065h184v-1065h-184z" />
<glyph unicode="&#xed;" horiz-adv-x="512" d="M23 1303l387 256l86 -173l-410 -208zM164 0v1065h184v-1065h-184z" />
<glyph unicode="&#xee;" horiz-adv-x="512" d="M-109 1323l299 193h132l299 -193l-97 -152l-268 215l-268 -215zM164 0v1065h184v-1065h-184z" />
<glyph unicode="&#xef;" horiz-adv-x="512" d="M-53 1366q0 56 33 89.5t90 33.5q51 0 87 -36.5t36 -86.5q0 -56 -33 -89.5t-90 -33.5q-51 0 -87 36.5t-36 86.5zM164 0v1065h184v-1065h-184zM319 1366q0 56 33 89.5t90 33.5q51 0 87 -36.5t36 -86.5q0 -56 -33 -89.5t-90 -33.5q-51 0 -87 36.5t-36 86.5z" />
<glyph unicode="&#xf0;" horiz-adv-x="1089" d="M51 424q0 104 36.5 192.5t97 147t138.5 91t162 32.5q186 0 334 -137q-6 137 -60 248t-147 184l-120 -162l-119 96l121 137q-106 45 -226 45q-33 0 -73 -4v166q40 4 75 4q183 0 336 -75l125 163l117 -96l-123 -141q133 -100 208 -259t75 -356q0 -330 -135.5 -527.5 t-378.5 -197.5q-87 0 -166.5 30.5t-141.5 86.5t-98.5 142t-36.5 190zM236 438q0 -139 77 -219t195 -80q134 0 213 113.5t98 339.5q-139 139 -301 139q-118 0 -200 -78.5t-82 -214.5z" />
<glyph unicode="&#xf1;" horiz-adv-x="1212" d="M164 0v1065h178v-178q134 203 358 203q176 0 267.5 -106t91.5 -290v-694h-185v674q0 117 -54 185.5t-150 68.5q-90 0 -174.5 -62.5t-147.5 -160.5v-705h-184zM299 1372q41 44 98.5 75.5t114.5 31.5q53 0 124 -35t112 -35q73 0 141 64l72 -130q-98 -94 -197 -94 q-55 0 -127.5 35t-116.5 35q-71 0 -149 -74z" />
<glyph unicode="&#xf2;" horiz-adv-x="1224" d="M82 532q0 253 150 405.5t380 152.5q111 0 208 -39.5t168.5 -110t113 -175t41.5 -228.5q0 -167 -69.5 -295.5t-190 -197.5t-271.5 -69q-230 0 -380 155.5t-150 401.5zM270 537q0 -163 99 -280.5t243 -117.5q159 0 250.5 108t91.5 285q0 106 -44.5 196t-123.5 144t-174 54 q-159 0 -250.5 -106t-91.5 -283zM381 1386l86 173l387 -256l-63 -125z" />
<glyph unicode="&#xf3;" horiz-adv-x="1224" d="M82 532q0 253 150 405.5t380 152.5q111 0 208 -39.5t168.5 -110t113 -175t41.5 -228.5q0 -167 -69.5 -295.5t-190 -197.5t-271.5 -69q-230 0 -380 155.5t-150 401.5zM270 537q0 -163 99 -280.5t243 -117.5q159 0 250.5 108t91.5 285q0 106 -44.5 196t-123.5 144t-174 54 q-159 0 -250.5 -106t-91.5 -283zM401 1303l387 256l86 -173l-409 -208z" />
<glyph unicode="&#xf4;" horiz-adv-x="1224" d="M82 532q0 253 150 405.5t380 152.5q111 0 208 -39.5t168.5 -110t113 -175t41.5 -228.5q0 -167 -69.5 -295.5t-190 -197.5t-271.5 -69q-230 0 -380 155.5t-150 401.5zM236 1323l299 193h131l299 -193l-97 -152l-268 215l-268 -215zM270 537q0 -163 99 -280.5t243 -117.5 q159 0 250.5 108t91.5 285q0 106 -44.5 196t-123.5 144t-174 54q-159 0 -250.5 -106t-91.5 -283z" />
<glyph unicode="&#xf5;" horiz-adv-x="1224" d="M82 532q0 253 150 405.5t380 152.5q111 0 208 -39.5t168.5 -110t113 -175t41.5 -228.5q0 -167 -69.5 -295.5t-190 -197.5t-271.5 -69q-230 0 -380 155.5t-150 401.5zM270 537q0 -163 99 -280.5t243 -117.5q159 0 250.5 108t91.5 285q0 106 -44.5 196t-123.5 144t-174 54 q-159 0 -250.5 -106t-91.5 -283zM274 1372q41 44 98.5 75.5t114.5 31.5q53 0 124 -35t112 -35q73 0 141 64l72 -130q-98 -94 -197 -94q-55 0 -127 35t-116 35q-72 0 -150 -74z" />
<glyph unicode="&#xf6;" horiz-adv-x="1224" d="M82 532q0 253 150 405.5t380 152.5q111 0 208 -39.5t168.5 -110t113 -175t41.5 -228.5q0 -167 -69.5 -295.5t-190 -197.5t-271.5 -69q-230 0 -380 155.5t-150 401.5zM270 537q0 -163 99 -280.5t243 -117.5q159 0 250.5 108t91.5 285q0 106 -44.5 196t-123.5 144t-174 54 q-159 0 -250.5 -106t-91.5 -283zM305 1366q0 56 33 89.5t90 33.5q51 0 87 -36.5t36 -86.5q0 -56 -33 -89.5t-90 -33.5q-51 0 -87 36.5t-36 86.5zM678 1366q0 56 33 89.5t90 33.5q51 0 87 -36.5t36 -86.5q0 -56 -33 -89.5t-90 -33.5q-51 0 -87 36.5t-36 86.5z" />
<glyph unicode="&#xf7;" d="M266 618v168h697v-168h-697zM479 283q0 63 36.5 100t100.5 37q54 0 96 -41t42 -96q0 -61 -39 -99.5t-99 -38.5q-55 0 -96 41t-41 97zM479 1122q0 63 36.5 100.5t100.5 37.5q54 0 96 -41.5t42 -96.5q0 -61 -39 -99t-99 -38q-56 0 -96.5 40.5t-40.5 96.5z" />
<glyph unicode="&#xf8;" horiz-adv-x="1224" d="M82 532q0 253 150 405.5t380 152.5q84 0 164 -25l113 240l145 -76l-125 -225q109 -71 171.5 -192t62.5 -275q0 -167 -69.5 -295.5t-190 -197.5t-271.5 -69q-97 0 -182 29l-115 -248l-145 76l133 238q-104 73 -162.5 192.5t-58.5 269.5zM270 537q0 -184 117 -301l318 675 q-47 15 -93 15q-159 0 -250.5 -106t-91.5 -283zM504 158q46 -19 108 -19q159 0 250.5 108t91.5 285q0 91 -34 172.5t-95 137.5z" />
<glyph unicode="&#xf9;" horiz-adv-x="1236" d="M154 373v692h184v-668q0 -125 53.5 -191.5t155.5 -66.5q168 0 303 125v801h184v-789q0 -81 33.5 -112t87.5 -31l-39 -143q-190 0 -235 151q-163 -166 -369 -166q-72 0 -134 22t-113.5 67.5t-81 124.5t-29.5 184zM344 1386l86 173l387 -256l-63 -125z" />
<glyph unicode="&#xfa;" horiz-adv-x="1236" d="M154 373v692h184v-668q0 -125 53.5 -191.5t155.5 -66.5q168 0 303 125v801h184v-789q0 -81 33.5 -112t87.5 -31l-39 -143q-190 0 -235 151q-163 -166 -369 -166q-72 0 -134 22t-113.5 67.5t-81 124.5t-29.5 184zM391 1303l387 256l86 -173l-409 -208z" />
<glyph unicode="&#xfb;" horiz-adv-x="1236" d="M154 373v692h184v-668q0 -125 53.5 -191.5t155.5 -66.5q168 0 303 125v801h184v-789q0 -81 33.5 -112t87.5 -31l-39 -143q-190 0 -235 151q-163 -166 -369 -166q-72 0 -134 22t-113.5 67.5t-81 124.5t-29.5 184zM238 1323l299 193h131l299 -193l-97 -152l-268 215 l-268 -215z" />
<glyph unicode="&#xfc;" horiz-adv-x="1236" d="M154 373v692h184v-668q0 -125 53.5 -191.5t155.5 -66.5q168 0 303 125v801h184v-789q0 -81 33.5 -112t87.5 -31l-39 -143q-190 0 -235 151q-163 -166 -369 -166q-72 0 -134 22t-113.5 67.5t-81 124.5t-29.5 184zM293 1366q0 56 33 89.5t90 33.5q51 0 87 -36.5t36 -86.5 q0 -56 -33 -89.5t-90 -33.5q-51 0 -87 36.5t-36 86.5zM666 1366q0 56 32.5 89.5t89.5 33.5q51 0 87 -36.5t36 -86.5q0 -56 -33 -89.5t-90 -33.5q-51 0 -86.5 36.5t-35.5 86.5z" />
<glyph unicode="&#xfd;" horiz-adv-x="1071" d="M10 -434l41 153q62 -34 144 -34q92 0 157.5 59t124.5 213l47 123h-98l-416 936l164 74l397 -887l310 878l170 -65l-392 -1069q-87 -236 -197 -329t-272 -93q-118 0 -180 41zM348 1303l387 256l86 -173l-409 -208z" />
<glyph unicode="&#xfe;" horiz-adv-x="1216" d="M164 -451v1885h184v-480q50 55 129 95.5t178 40.5q93 0 177.5 -37.5t149.5 -105.5t103.5 -173t38.5 -231q0 -124 -38.5 -231.5t-102.5 -180.5t-148.5 -114.5t-175.5 -41.5q-89 0 -170.5 35.5t-140.5 89.5v-551h-184zM348 266q120 -127 275 -127q140 0 226.5 110t86.5 288 q0 179 -92.5 286t-229.5 107q-82 0 -153.5 -41t-112.5 -98v-525z" />
<glyph unicode="&#xff;" horiz-adv-x="1071" d="M10 -434l41 153q62 -34 144 -34q92 0 157.5 59t124.5 213l47 123h-98l-416 936l164 74l397 -887l310 878l170 -65l-392 -1069q-87 -236 -197 -329t-272 -93q-118 0 -180 41zM242 1366q0 56 33 89.5t90 33.5q51 0 86.5 -36.5t35.5 -86.5q0 -56 -32.5 -89.5t-89.5 -33.5 q-51 0 -87 36.5t-36 86.5zM614 1366q0 56 33 89.5t90 33.5q51 0 87 -36.5t36 -86.5q0 -56 -33 -89.5t-90 -33.5q-51 0 -87 36.5t-36 86.5z" />
<glyph unicode="&#x152;" horiz-adv-x="1880" d="M82 719q0 211 79.5 377.5t234.5 264t362 97.5q113 0 254 -24h776v-168h-651v-437h559v-163h-559v-498h651v-168h-778q-142 -25 -252 -25q-125 0 -233 38t-188.5 106t-138.5 160.5t-87 204.5t-29 235zM281 719q0 -112 33 -215.5t92.5 -184t151 -128.5t200.5 -48 q105 0 190 23v1100q-88 24 -190 24q-147 0 -256.5 -75.5t-165 -204t-55.5 -291.5z" />
<glyph unicode="&#x153;" horiz-adv-x="1972" d="M82 532q0 168 70.5 296t190 195t269.5 67q279 0 430 -236q132 236 390 236q111 0 199.5 -39t144.5 -107t85 -156.5t29 -191.5q0 -72 -6 -139h-745q19 -150 105 -234t226 -84q154 0 308 70l43 -158q-166 -76 -373 -76q-291 0 -418 248q-68 -116 -174.5 -182t-247.5 -66 q-149 0 -269 70t-188.5 197.5t-68.5 289.5zM270 537q0 -163 99 -280.5t243 -117.5q159 0 250.5 108t91.5 285q0 106 -44.5 196t-123.5 144t-174 54q-159 0 -250.5 -106t-91.5 -283zM1137 606h583q0 154 -78 239t-215 85q-122 0 -198.5 -84t-91.5 -240z" />
<glyph unicode="&#x2c6;" horiz-adv-x="933" d="M102 1323l299 193h131l299 -193l-96 -152l-268 215l-268 -215z" />
<glyph unicode="&#x2dc;" horiz-adv-x="866" d="M102 1372q41 44 98.5 75.5t114.5 31.5q53 0 124 -35t112 -35q73 0 141 64l72 -130q-98 -94 -197 -94q-55 0 -127 35t-116 35q-72 0 -150 -74z" />
<glyph unicode="&#x2000;" horiz-adv-x="942" />
<glyph unicode="&#x2001;" horiz-adv-x="1884" />
<glyph unicode="&#x2002;" horiz-adv-x="942" />
<glyph unicode="&#x2003;" horiz-adv-x="1884" />
<glyph unicode="&#x2004;" horiz-adv-x="628" />
<glyph unicode="&#x2005;" horiz-adv-x="471" />
<glyph unicode="&#x2006;" horiz-adv-x="314" />
<glyph unicode="&#x2007;" horiz-adv-x="314" />
<glyph unicode="&#x2008;" horiz-adv-x="235" />
<glyph unicode="&#x2009;" horiz-adv-x="376" />
<glyph unicode="&#x200a;" horiz-adv-x="104" />
<glyph unicode="&#x2010;" d="M266 618v168h697v-168h-697z" />
<glyph unicode="&#x2011;" d="M266 618v168h697v-168h-697z" />
<glyph unicode="&#x2012;" d="M266 618v168h697v-168h-697z" />
<glyph unicode="&#x2013;" d="M143 618v168h942v-168h-942z" />
<glyph unicode="&#x2014;" horiz-adv-x="1536" d="M154 618v168h1228v-168h-1228z" />
<glyph unicode="&#x2018;" horiz-adv-x="464" d="M82 1272q0 96 55.5 187.5t151.5 142.5l47 -72q-107 -73 -127 -187q21 9 43 9q57 0 94 -37t37 -94q0 -58 -38.5 -94.5t-98.5 -36.5q-74 0 -119 48t-45 134z" />
<glyph unicode="&#x2019;" horiz-adv-x="464" d="M82 1409q0 58 38.5 94.5t98.5 36.5q74 0 119 -48t45 -134q0 -96 -55.5 -187.5t-151.5 -142.5l-47 72q107 73 127 186q-19 -8 -43 -8q-57 0 -94 37t-37 94z" />
<glyph unicode="&#x201a;" horiz-adv-x="464" d="M82 119q0 58 38.5 94.5t98.5 36.5q74 0 119 -48t45 -134q0 -96 -55.5 -187.5t-151.5 -142.5l-47 72q107 73 127 186q-19 -8 -43 -8q-57 0 -94 37t-37 94z" />
<glyph unicode="&#x201c;" horiz-adv-x="841" d="M82 1272q0 96 55.5 187.5t151.5 142.5l47 -72q-107 -73 -127 -187q21 9 43 9q57 0 94 -37t37 -94q0 -58 -38.5 -94.5t-98.5 -36.5q-74 0 -119 48t-45 134zM459 1272q0 96 55.5 187.5t151.5 142.5l47 -72q-107 -73 -127 -187q21 9 43 9q57 0 94 -37t37 -94 q0 -58 -38.5 -94.5t-98.5 -36.5q-74 0 -119 48t-45 134z" />
<glyph unicode="&#x201d;" horiz-adv-x="841" d="M82 1409q0 58 38.5 94.5t98.5 36.5q74 0 119 -48t45 -134q0 -96 -55.5 -187.5t-151.5 -142.5l-47 72q107 73 127 186q-19 -8 -43 -8q-57 0 -94 37t-37 94zM459 1409q0 58 38.5 94.5t98.5 36.5q74 0 119 -48t45 -134q0 -96 -55.5 -187.5t-151.5 -142.5l-47 72 q107 73 127 186q-19 -8 -43 -8q-57 0 -94 37t-37 94z" />
<glyph unicode="&#x201e;" horiz-adv-x="841" d="M82 119q0 58 38.5 94.5t98.5 36.5q74 0 119 -48t45 -134q0 -96 -55.5 -187.5t-151.5 -142.5l-47 72q107 73 127 186q-19 -8 -43 -8q-57 0 -94 37t-37 94zM459 119q0 58 38.5 94.5t98.5 36.5q74 0 119 -48t45 -134q0 -96 -55.5 -187.5t-151.5 -142.5l-47 72 q107 73 127 186q-19 -8 -43 -8q-57 0 -94 37t-37 94z" />
<glyph unicode="&#x2022;" horiz-adv-x="921" d="M186 727q0 127 73.5 200.5t201.5 73.5q114 0 194 -80t80 -194q0 -127 -73 -200.5t-201 -73.5q-114 0 -194.5 80t-80.5 194z" />
<glyph unicode="&#x202f;" horiz-adv-x="376" />
<glyph unicode="&#x2039;" horiz-adv-x="749" d="M123 662v86l323 397l119 -101l-291 -339l291 -340l-119 -101z" />
<glyph unicode="&#x203a;" horiz-adv-x="749" d="M184 365l291 340l-291 339l119 101l324 -397v-86l-324 -398z" />
<glyph unicode="&#x205f;" horiz-adv-x="471" />
<glyph unicode="&#x20ac;" d="M47 481v150h178v137h-178v150h191q45 250 198.5 395t394.5 145q178 0 334 -80l-51 -155q-134 75 -276 75q-164 0 -271.5 -99t-144.5 -281h522v-150h-530v-137h489v-150h-469q43 -161 144 -253.5t239 -92.5q90 0 156 23t143 67l64 -149q-65 -41 -164.5 -71t-216.5 -30 q-219 0 -365 134t-194 372h-193z" />
<glyph unicode="&#x25fc;" horiz-adv-x="1085" d="M0 0v1085h1085v-1085h-1085z" />
</font>
</defs>
</svg>
